<svg xmlns="http://www.w3.org/2000/svg"  viewBox="0 0 24 24" width="64px" height="64px"><path fill="#1494eb" d="M20.75,7.75V20A2.748,2.748,0,0,1,18,22.75H6A2.748,2.748,0,0,1,3.25,20V4A2.748,2.748,0,0,1,6,1.25h8.25a2.74,2.74,0,0,1,1.87.81l3.82,3.82A2.74,2.74,0,0,1,20.75,7.75Z"/><path fill="#46bcfc" d="M17,4A13,13,0,0,1,4,17q-.375,0-.75-.03V4A2.748,2.748,0,0,1,6,1.25h8.25a2.74,2.74,0,0,1,1.87.81l.83.83C16.98,3.26,17,3.63,17,4Z"/><path fill="#ff8906" d="M20.75,7.75H17a2.352,2.352,0,0,1-.54-.06A2.746,2.746,0,0,1,14.25,5V1.25a2.74,2.74,0,0,1,1.87.81l3.82,3.82A2.74,2.74,0,0,1,20.75,7.75Z"/><path fill="#ffc100" d="M17,4a12.864,12.864,0,0,1-.54,3.69A2.746,2.746,0,0,1,14.25,5V1.25a2.74,2.74,0,0,1,1.87.81l.83.83C16.98,3.26,17,3.63,17,4Z"/></svg>